# xmcd CD database file
# Copyright (C) 1997 Ti Kan
#
# Track frame offsets:
#  182
#  10802
#  18992
#  32175
#  48472
#  59020
#  73920
#  88525
#  101450
#  116015
#  127297
#  141465
#  152095
#  157615
#  165595
#  173620
#  187165
#
# Disc length: 2712 seconds
#
# Revision: 1
# Processed by: cddbd v1.4b41PL1 Copyright (c) Steve Scherf et al.
# Submitted via: CDWizzard Release:4.32
#
DISCID=ea0a9611
DTITLE=Billie Holiday - 16 Greatest Hits
DYEAR=1900
DGENRE=
TTITLE0=Nobody's Business
TTITLE1=Miss Brown To You
TTITLE2=He's Funny That Way
TTITLE3=I Cover the Waterfront
TTITLE4=Lover Come Back To Me
TTITLE5=Dont Explain
TTITLE6=Lover Man
TTITLE7=My Man
TTITLE8=Dont Be Late
TTITLE9=I Love You porgy
TTITLE10=Everything a Good Man Needs
TTITLE11=No Detour Ahead
TTITLE12=You're Driving Me Crazy
TTITLE13=Them There Eyes
TTITLE14=Swing Brother Swing
TTITLE15=They cant Take That Away From me
TTITLE16=Do Nothing Til You Hear From Me
EXTD=
EXTT0=
EXTT1=
EXTT2=
EXTT3=
EXTT4=
EXTT5=
EXTT6=
EXTT7=
EXTT8=
EXTT9=
EXTT10=
EXTT11=
EXTT12=
EXTT13=
EXTT14=
EXTT15=
EXTT16=
PLAYORDER=
